# xmcd CD database file
# Copyright (C) 1997 Ti Kan
# 
# Track frame offsets:
#     150
#     17215
#     29613
#     41620
#     54435
#     67770
#     88635
#     102640
#     118548
#     130998
#     156210
#     168295
# 
# Disc length: 2656 seconds
# 
# Revision: 1
# Processed by: cddbd v1.4b41PL1 Copyright (c) Steve Scherf et al.
# Submitted via: DiscPlay 4.0.1
# 
DISCID=9b0a5e0c
DTITLE=Jack Ingram - Jack Ingram
DYEAR=1900
DGENRE=
TTITLE0=Beat Up Ford
TTITLE1=Sight Unseen
TTITLE2=Make My Heart Flutter
TTITLE3=Beyond My Means
TTITLE4=Mama Tried
TTITLE5=A Song For Amy
TTITLE6=Things Get Cloudy
TTITLE7=The Fisherman
TTITLE8=Me And You
TTITLE9=Drive On
TTITLE10=Pick Up The Tempo
TTITLE11=Road Goes On Forever
EXTD=
EXTT0=
EXTT1=
EXTT2=
EXTT3=
EXTT4=
EXTT5=
EXTT6=
EXTT7=
EXTT8=
EXTT9=
EXTT10=
EXTT11=
PLAYORDER=
